<?xml version="1.0" encoding="UTF-8" standalone="no"?>
<!-- Created with Inkscape (http://www.inkscape.org/) -->

<svg
   xmlns:dc="http://purl.org/dc/elements/1.1/"
   xmlns:cc="http://creativecommons.org/ns#"
   xmlns:rdf="http://www.w3.org/1999/02/22-rdf-syntax-ns#"
   xmlns:svg="http://www.w3.org/2000/svg"
   xmlns="http://www.w3.org/2000/svg"
   xmlns:sodipodi="http://sodipodi.sourceforge.net/DTD/sodipodi-0.dtd"
   xmlns:inkscape="http://www.inkscape.org/namespaces/inkscape"
   width="210mm"
   height="297mm"
   viewBox="0 0 744.09448819 1052.3622047"
   id="svg5394"
   version="1.1"
   inkscape:version="0.91 r13725"
   sodipodi:docname="analysis_nodes.svg">
  <defs
     id="defs5396" />
  <sodipodi:namedview
     id="base"
     pagecolor="#ffffff"
     bordercolor="#666666"
     borderopacity="1.0"
     inkscape:pageopacity="0.0"
     inkscape:pageshadow="2"
     inkscape:zoom="1.8101934"
     inkscape:cx="239.58584"
     inkscape:cy="923.06581"
     inkscape:document-units="px"
     inkscape:current-layer="layer1"
     showgrid="true"
     inkscape:window-width="1366"
     inkscape:window-height="727"
     inkscape:window-x="0"
     inkscape:window-y="17"
     inkscape:window-maximized="1"
     showguides="false">
    <inkscape:grid
       type="xygrid"
       id="grid5942" />
  </sodipodi:namedview>
  <metadata
     id="metadata5399">
    <rdf:RDF>
      <cc:Work
         rdf:about="">
        <dc:format>image/svg+xml</dc:format>
        <dc:type
           rdf:resource="http://purl.org/dc/dcmitype/StillImage" />
        <dc:title></dc:title>
      </cc:Work>
    </rdf:RDF>
  </metadata>
  <g
     inkscape:label="Layer 1"
     inkscape:groupmode="layer"
     id="layer1">
    <text
       xml:space="preserve"
       style="font-style:normal;font-weight:normal;font-size:40px;line-height:125%;font-family:sans-serif;letter-spacing:0px;word-spacing:0px;fill:#000000;fill-opacity:1;stroke:none;stroke-width:1px;stroke-linecap:butt;stroke-linejoin:miter;stroke-opacity:1"
       x="163.2547"
       y="185.2372"
       id="text6969"
       sodipodi:linespacing="125%"><tspan
         sodipodi:role="line"
         id="tspan6971"
         x="163.2547"
         y="185.2372"
         style="font-size:11.00618839px">N<tspan
   style="font-size:11.00618839px;baseline-shift:sub"
   id="tspan6973">0</tspan></tspan></text>
    <path
       style="fill:none;fill-rule:evenodd;stroke:#000000;stroke-width:1px;stroke-linecap:butt;stroke-linejoin:miter;stroke-opacity:1"
       d="m 181.02814,167.3622 c 0,0 10,0 10,10 0,10 0,10 0,10 0,0 0,10 -10,10 -10,0 -20,0 -20,0 0,0 -10,0 -10,-10 0,-10 0,-10 0,-10 0,0 0,-10 10,-10 10,0 20,0 20,0 z"
       id="path6975"
       inkscape:connector-curvature="0" />
    <path
       style="fill:none;fill-rule:evenodd;stroke:#000000;stroke-width:2.935;stroke-linecap:round;stroke-linejoin:miter;stroke-miterlimit:4;stroke-dasharray:none;stroke-opacity:1"
       d="m 135.26689,89.865223 0,50.167577"
       id="path29574-2"
       inkscape:connector-curvature="0" />
    <path
       style="fill:none;fill-rule:evenodd;stroke:#000000;stroke-width:2.93499994;stroke-linecap:butt;stroke-linejoin:miter;stroke-miterlimit:4;stroke-dasharray:none;stroke-opacity:1"
       d="m 136.42211,126.00599 123.83226,0"
       id="path4827-3"
       inkscape:connector-curvature="0" />
    <path
       style="fill:none;fill-rule:evenodd;stroke:#000000;stroke-width:2.93499994;stroke-linecap:butt;stroke-linejoin:miter;stroke-miterlimit:4;stroke-dasharray:none;stroke-opacity:1"
       d="m 136.42211,103.59967 c 123.83226,0 123.83226,0 123.83226,0"
       id="path4829"
       inkscape:connector-curvature="0" />
    <path
       style="fill:none;fill-rule:evenodd;stroke:#000000;stroke-width:2.935;stroke-linecap:butt;stroke-linejoin:miter;stroke-miterlimit:4;stroke-dasharray:none;stroke-opacity:1"
       d="m 388.4081,126.11948 67.20474,0"
       id="path4827-8"
       inkscape:connector-curvature="0" />
    <path
       style="fill:none;fill-rule:evenodd;stroke:#000000;stroke-width:2.935;stroke-linecap:butt;stroke-linejoin:miter;stroke-miterlimit:4;stroke-dasharray:none;stroke-opacity:1"
       d="m 388.4081,103.52248 c 67.20474,0 67.20474,0 67.20474,0"
       id="path4829-9"
       inkscape:connector-curvature="0" />
    <path
       style="fill:none;fill-rule:evenodd;stroke:#000000;stroke-width:2.935;stroke-linecap:butt;stroke-linejoin:miter;stroke-miterlimit:4;stroke-dasharray:5.87,5.87;stroke-dashoffset:0;stroke-opacity:1"
       d="m 258.38865,126.06676 133.26583,0"
       id="path4849"
       inkscape:connector-curvature="0" />
    <path
       style="fill:none;fill-rule:evenodd;stroke:#000000;stroke-width:2.935;stroke-linecap:butt;stroke-linejoin:miter;stroke-miterlimit:4;stroke-dasharray:5.87,5.87;stroke-dashoffset:0;stroke-opacity:1"
       d="m 258.38865,103.54424 c 133.26583,0 133.26583,0 133.26583,0"
       id="path4851"
       inkscape:connector-curvature="0" />
    <path
       style="fill:none;fill-rule:evenodd;stroke:#000000;stroke-width:2.935;stroke-linecap:round;stroke-linejoin:miter;stroke-miterlimit:4;stroke-dasharray:none;stroke-opacity:1"
       d="m 455.81295,89.761955 0,50.583865"
       id="path29574-2-6"
       inkscape:connector-curvature="0" />
    <text
       xml:space="preserve"
       style="font-style:normal;font-weight:normal;font-size:40px;line-height:125%;font-family:sans-serif;letter-spacing:0px;word-spacing:0px;fill:#000000;fill-opacity:1;stroke:none;stroke-width:1px;stroke-linecap:butt;stroke-linejoin:miter;stroke-opacity:1"
       x="222.80713"
       y="185.40855"
       id="text6969-7"
       sodipodi:linespacing="125%"><tspan
         sodipodi:role="line"
         id="tspan6971-5"
         x="222.80713"
         y="185.40855"
         style="font-size:11.00618839px">N<tspan
   style="font-size:65%;baseline-shift:sub"
   id="tspan7721">1</tspan></tspan></text>
    <path
       style="fill:none;fill-rule:evenodd;stroke:#000000;stroke-width:1px;stroke-linecap:butt;stroke-linejoin:miter;stroke-opacity:1"
       d="m 240.58056,167.53357 c 0,0 10,0 10,10 0,10 0,10 0,10 0,0 0,10 -10,10 -10,0 -20,0 -20,0 0,0 -10,0 -10,-10 0,-10 0,-10 0,-10 0,0 0,-10 10,-10 10,0 20,0 20,0 z"
       id="path6975-5"
       inkscape:connector-curvature="0" />
    <text
       xml:space="preserve"
       style="font-style:normal;font-weight:normal;font-size:40px;line-height:125%;font-family:sans-serif;letter-spacing:0px;word-spacing:0px;fill:#000000;fill-opacity:1;stroke:none;stroke-width:1px;stroke-linecap:butt;stroke-linejoin:miter;stroke-opacity:1"
       x="412.50125"
       y="185.34206"
       id="text6969-6-2"
       sodipodi:linespacing="125%"><tspan
         sodipodi:role="line"
         id="tspan6971-2-7"
         x="412.50125"
         y="185.34206"
         style="font-size:11.00618839px">N<tspan
   style="font-size:64.99999762%;baseline-shift:sub"
   id="tspan7682">n-1</tspan></tspan></text>
    <path
       style="fill:none;fill-rule:evenodd;stroke:#000000;stroke-width:1px;stroke-linecap:butt;stroke-linejoin:miter;stroke-opacity:1"
       d="m 430.27477,167.46704 c 0,0 10,0 10,10 0,10 0,10 0,10 0,0 0,10 -10,10 -10,0 -20,0 -20,0 0,0 -10,0 -10,-10 0,-10 0,-10 0,-10 0,0 0,-10 10,-10 10,0 20,0 20,0 z"
       id="path6975-1-9"
       inkscape:connector-curvature="0" />
    <text
       xml:space="preserve"
       style="font-style:normal;font-weight:normal;line-height:125%;font-family:sans-serif;letter-spacing:0px;word-spacing:0px;baseline-shift:baseline;fill:#000000;fill-opacity:1;stroke:none;stroke-width:1;stroke-linecap:butt;stroke-linejoin:miter;stroke-miterlimit:4;stroke-dasharray:2, 2;stroke-dashoffset:0;stroke-opacity:1"
       x="282.70227"
       y="185.40855"
       id="text6969-7-3"
       sodipodi:linespacing="125%"><tspan
         sodipodi:role="line"
         id="tspan6971-5-6"
         x="282.70227"
         y="185.40855">N<tspan
   style="font-size:64.99999762%;baseline-shift:sub"
   id="tspan7723">2</tspan></tspan></text>
    <path
       style="fill:none;fill-rule:evenodd;stroke:#000000;stroke-width:1;stroke-linecap:butt;stroke-linejoin:miter;stroke-miterlimit:4;stroke-dasharray:2, 2;stroke-dashoffset:0;stroke-opacity:1"
       d="m 299.69446,167.53357 c 0,0 10,0 10,10 0,10 0,10 0,10 0,0 0,10 -10,10 -10,0 -20,0 -20,0 0,0 -10,0 -10,-10 0,-10 0,-10 0,-10 0,0 0,-10 10,-10 10,0 20,0 20,0 z"
       id="path6975-5-6"
       inkscape:connector-curvature="0" />
    <circle
       style="fill:#000000;fill-opacity:1;stroke:#000000;stroke-width:1;stroke-linejoin:round;stroke-miterlimit:4;stroke-dasharray:none;stroke-dashoffset:0;stroke-opacity:1"
       id="path7746"
       cx="320.02759"
       cy="182.3622"
       r="1" />
    <circle
       style="fill:#000000;fill-opacity:1;stroke:#000000;stroke-width:1;stroke-linejoin:round;stroke-miterlimit:4;stroke-dasharray:none;stroke-dashoffset:0;stroke-opacity:1"
       id="path7748"
       cx="325.02759"
       cy="182.3622"
       r="1" />
    <circle
       style="fill:#000000;fill-opacity:1;stroke:#000000;stroke-width:1;stroke-linejoin:round;stroke-miterlimit:4;stroke-dasharray:none;stroke-dashoffset:0;stroke-opacity:1"
       id="path7750"
       cx="330.02759"
       cy="182.3622"
       r="1" />
    <text
       xml:space="preserve"
       style="font-style:normal;font-weight:normal;line-height:125%;font-family:sans-serif;letter-spacing:0px;word-spacing:0px;baseline-shift:baseline;fill:#000000;fill-opacity:1;stroke:none;stroke-width:1;stroke-linecap:butt;stroke-linejoin:miter;stroke-miterlimit:4;stroke-dasharray:2, 2;stroke-dashoffset:0;stroke-opacity:1"
       x="352.94977"
       y="185.40855"
       id="text6969-7-3-2"
       sodipodi:linespacing="125%"><tspan
         sodipodi:role="line"
         id="tspan6971-5-6-6"
         x="352.94977"
         y="185.40855">N<tspan
   style="font-size:64.99999762%;baseline-shift:sub"
   id="tspan7776">n-2</tspan></tspan></text>
    <path
       style="fill:none;fill-rule:evenodd;stroke:#000000;stroke-width:1;stroke-linecap:butt;stroke-linejoin:miter;stroke-miterlimit:4;stroke-dasharray:2, 2;stroke-dashoffset:0;stroke-opacity:1"
       d="m 369.94264,167.53357 c 0,0 10,0 10,10 0,10 0,10 0,10 0,0 0,10 -10,10 -10,0 -20,0 -20,0 0,0 -10,0 -10,-10 0,-10 0,-10 0,-10 0,0 0,-10 10,-10 10,0 20,0 20,0 z"
       id="path6975-5-6-8"
       inkscape:connector-curvature="0" />
    <path
       style="fill:none;fill-rule:evenodd;stroke:#000000;stroke-width:1px;stroke-linecap:butt;stroke-linejoin:miter;stroke-opacity:1"
       d="m 165,167.3622 0,-41"
       id="path7778"
       inkscape:connector-curvature="0" />
    <path
       style="fill:none;fill-rule:evenodd;stroke:#000000;stroke-width:1px;stroke-linecap:butt;stroke-linejoin:miter;stroke-opacity:1"
       d="m 175,167.3622 0,-64"
       id="path7780"
       inkscape:connector-curvature="0" />
    <path
       style="fill:none;fill-rule:evenodd;stroke:#000000;stroke-width:1px;stroke-linecap:butt;stroke-linejoin:miter;stroke-opacity:1"
       d="m 225,167.83261 0,-41"
       id="path7778-7"
       inkscape:connector-curvature="0" />
    <path
       style="fill:none;fill-rule:evenodd;stroke:#000000;stroke-width:1px;stroke-linecap:butt;stroke-linejoin:miter;stroke-opacity:1"
       d="m 235,167.83261 0,-64"
       id="path7780-9"
       inkscape:connector-curvature="0" />
    <path
       style="fill:none;fill-rule:evenodd;stroke:#000000;stroke-width:1;stroke-linecap:butt;stroke-linejoin:miter;stroke-opacity:1;stroke-miterlimit:4;stroke-dasharray:2,2;stroke-dashoffset:0"
       d="m 285,168.06538 0,-41"
       id="path7778-2"
       inkscape:connector-curvature="0" />
    <path
       style="fill:none;fill-rule:evenodd;stroke:#000000;stroke-width:1;stroke-linecap:butt;stroke-linejoin:miter;stroke-opacity:1;stroke-miterlimit:4;stroke-dasharray:2,2;stroke-dashoffset:0"
       d="m 295,168.06538 0,-64"
       id="path7780-0"
       inkscape:connector-curvature="0" />
    <path
       style="fill:none;fill-rule:evenodd;stroke:#000000;stroke-width:1;stroke-linecap:butt;stroke-linejoin:miter;stroke-opacity:1;stroke-miterlimit:4;stroke-dasharray:2,2;stroke-dashoffset:0"
       d="m 355.11725,168.02902 0,-41"
       id="path7778-23"
       inkscape:connector-curvature="0" />
    <path
       style="fill:none;fill-rule:evenodd;stroke:#000000;stroke-width:1;stroke-linecap:butt;stroke-linejoin:miter;stroke-opacity:1;stroke-miterlimit:4;stroke-dasharray:2,2;stroke-dashoffset:0"
       d="m 365.11725,168.02902 0,-64"
       id="path7780-7"
       inkscape:connector-curvature="0" />
    <path
       style="fill:none;fill-rule:evenodd;stroke:#000000;stroke-width:1px;stroke-linecap:butt;stroke-linejoin:miter;stroke-opacity:1"
       d="m 414.97705,167.73195 0,-41"
       id="path7778-5"
       inkscape:connector-curvature="0" />
    <path
       style="fill:none;fill-rule:evenodd;stroke:#000000;stroke-width:1px;stroke-linecap:butt;stroke-linejoin:miter;stroke-opacity:1"
       d="m 424.97705,167.73195 0,-64"
       id="path7780-92"
       inkscape:connector-curvature="0" />
  </g>
</svg>
