<?xml version="1.0" encoding="UTF-8" standalone="no"?>
<!-- Created with Inkscape (http://www.inkscape.org/) -->

<svg
   xmlns:dc="http://purl.org/dc/elements/1.1/"
   xmlns:cc="http://creativecommons.org/ns#"
   xmlns:rdf="http://www.w3.org/1999/02/22-rdf-syntax-ns#"
   xmlns:svg="http://www.w3.org/2000/svg"
   xmlns="http://www.w3.org/2000/svg"
   xmlns:sodipodi="http://sodipodi.sourceforge.net/DTD/sodipodi-0.dtd"
   xmlns:inkscape="http://www.inkscape.org/namespaces/inkscape"
   width="210mm"
   height="297mm"
   viewBox="0 0 744.09448819 1052.3622047"
   id="svg2"
   version="1.1"
   inkscape:version="0.91 r13725"
   sodipodi:docname="canbus_setup.svg"
   inkscape:export-filename="/home/thomas/Documents/school/master/semester_2/sem_pro/report/graphics/canbus_setup.png"
   inkscape:export-xdpi="90"
   inkscape:export-ydpi="90">
  <defs
     id="defs4" />
  <sodipodi:namedview
     id="base"
     pagecolor="#ffffff"
     bordercolor="#666666"
     borderopacity="1.0"
     inkscape:pageopacity="0.0"
     inkscape:pageshadow="2"
     inkscape:zoom="1.979899"
     inkscape:cx="208.05665"
     inkscape:cy="845.31947"
     inkscape:document-units="px"
     inkscape:current-layer="layer1"
     showgrid="true"
     inkscape:window-width="1366"
     inkscape:window-height="727"
     inkscape:window-x="0"
     inkscape:window-y="17"
     inkscape:window-maximized="1">
    <inkscape:grid
       type="xygrid"
       id="grid4136" />
  </sodipodi:namedview>
  <metadata
     id="metadata7">
    <rdf:RDF>
      <cc:Work
         rdf:about="">
        <dc:format>image/svg+xml</dc:format>
        <dc:type
           rdf:resource="http://purl.org/dc/dcmitype/StillImage" />
        <dc:title></dc:title>
      </cc:Work>
    </rdf:RDF>
  </metadata>
  <g
     inkscape:label="Layer 1"
     inkscape:groupmode="layer"
     id="layer1">
    <path
       style="fill:none;fill-rule:evenodd;stroke:#000000;stroke-width:2;stroke-linecap:round;stroke-linejoin:miter;stroke-miterlimit:4;stroke-dasharray:none;stroke-opacity:1"
       d="m 274.87074,302.88752 0,-25.84306"
       id="path29574-7"
       inkscape:connector-curvature="0" />
    <path
       style="fill:none;fill-rule:evenodd;stroke:#000000;stroke-width:2;stroke-linecap:round;stroke-linejoin:miter;stroke-miterlimit:4;stroke-dasharray:none;stroke-opacity:1"
       d="m 420.01259,302.75363 0,-25.7862"
       id="path29574-2-6"
       inkscape:connector-curvature="0" />
    <text
       xml:space="preserve"
       style="font-style:normal;font-weight:normal;font-size:10px;line-height:125%;font-family:sans-serif;letter-spacing:0px;word-spacing:0px;fill:#000000;fill-opacity:1;stroke:none;stroke-width:1px;stroke-linecap:butt;stroke-linejoin:miter;stroke-opacity:1"
       x="326.52911"
       y="147.12389"
       id="text5872-3"
       sodipodi:linespacing="125%"
       transform="scale(0.98119192,1.0191686)"><tspan
         sodipodi:role="line"
         id="tspan5874-6"
         x="326.52911"
         y="147.12389"
         style="font-size:10px">Application</tspan></text>
    <text
       xml:space="preserve"
       style="font-style:normal;font-weight:normal;font-size:10px;line-height:125%;font-family:sans-serif;letter-spacing:0px;word-spacing:0px;fill:#000000;fill-opacity:1;stroke:none;stroke-width:1px;stroke-linecap:butt;stroke-linejoin:miter;stroke-opacity:1"
       x="333.33301"
       y="176.78986"
       id="text5872-3-7"
       sodipodi:linespacing="125%"
       transform="scale(0.98119192,1.0191686)"><tspan
         sodipodi:role="line"
         id="tspan5874-6-5"
         x="333.33301"
         y="176.78986"
         style="font-size:10px">Protocol</tspan><tspan
         sodipodi:role="line"
         x="333.33301"
         y="189.28986"
         style="font-size:10px"
         id="tspan5918" /></text>
    <text
       xml:space="preserve"
       style="font-style:normal;font-weight:normal;font-size:10px;line-height:125%;font-family:sans-serif;letter-spacing:0px;word-spacing:0px;fill:#000000;fill-opacity:1;stroke:none;stroke-width:1px;stroke-linecap:butt;stroke-linejoin:miter;stroke-opacity:1"
       x="329.25906"
       y="216.63089"
       id="text5872-3-7-3"
       sodipodi:linespacing="125%"
       transform="scale(0.98119192,1.0191686)"><tspan
         sodipodi:role="line"
         id="tspan5874-6-5-5"
         x="329.25906"
         y="216.63089"
         style="font-size:10px">Controller</tspan><tspan
         sodipodi:role="line"
         x="329.25906"
         y="229.13089"
         style="font-size:10px"
         id="tspan5918-6" /></text>
    <text
       xml:space="preserve"
       style="font-style:normal;font-weight:normal;font-size:10px;line-height:125%;font-family:sans-serif;letter-spacing:0px;word-spacing:0px;fill:#000000;fill-opacity:1;stroke:none;stroke-width:1px;stroke-linecap:butt;stroke-linejoin:miter;stroke-opacity:1"
       x="301.12277"
       y="104.16155"
       id="text5872-3-9"
       sodipodi:linespacing="125%"
       transform="scale(0.98119192,1.0191686)"><tspan
         sodipodi:role="line"
         id="tspan5874-6-1"
         x="301.12277"
         y="104.16155"
         style="font-size:10px">Microcontroller</tspan></text>
    <text
       xml:space="preserve"
       style="font-style:normal;font-weight:normal;font-size:10px;line-height:125%;font-family:sans-serif;letter-spacing:0px;word-spacing:0px;fill:#000000;fill-opacity:1;stroke:none;stroke-width:1px;stroke-linecap:butt;stroke-linejoin:miter;stroke-opacity:1"
       x="312.4064"
       y="124.13582"
       id="text5872-3-9-2"
       sodipodi:linespacing="125%"
       transform="scale(0.98119192,1.0191686)"><tspan
         sodipodi:role="line"
         id="tspan5874-6-1-7"
         x="312.4064"
         y="124.13582"
         style="font-size:10px">Software</tspan><tspan
         sodipodi:role="line"
         x="312.4064"
         y="136.63582"
         style="font-size:10px"
         id="tspan5998" /></text>
    <text
       xml:space="preserve"
       style="font-style:normal;font-weight:normal;font-size:10px;line-height:125%;font-family:sans-serif;letter-spacing:0px;word-spacing:0px;fill:#000000;fill-opacity:1;stroke:none;stroke-width:1px;stroke-linecap:butt;stroke-linejoin:miter;stroke-opacity:1"
       x="328.16714"
       y="256.40408"
       id="text5872-3-7-3-0"
       sodipodi:linespacing="125%"
       transform="scale(0.98119192,1.0191686)"><tspan
         sodipodi:role="line"
         id="tspan5874-6-5-5-9"
         x="328.16714"
         y="256.40408"
         style="font-size:10px">CAN XCVR</tspan><tspan
         sodipodi:role="line"
         x="328.16714"
         y="268.90408"
         style="font-size:10px"
         id="tspan5918-6-3" /></text>
    <path
       style="fill:none;fill-rule:evenodd;stroke:#646464;stroke-width:1px;stroke-linecap:butt;stroke-linejoin:miter;stroke-opacity:1"
       d="m 360,267.3622 0,15"
       id="path6044"
       inkscape:connector-curvature="0" />
    <path
       style="fill:none;fill-rule:evenodd;stroke:#646464;stroke-width:1;stroke-linecap:butt;stroke-linejoin:miter;stroke-opacity:1;stroke-miterlimit:4;stroke-dasharray:none"
       d="m 335,267.3622 0,28.92857"
       id="path6046"
       inkscape:connector-curvature="0" />
    <path
       style="fill:none;fill-rule:evenodd;stroke:#646464;stroke-width:1px;stroke-linecap:butt;stroke-linejoin:miter;stroke-opacity:1"
       d="m 347,247.3622 0,-20"
       id="path6048"
       inkscape:connector-curvature="0" />
    <path
       style="fill:none;fill-rule:evenodd;stroke:#646464;stroke-width:1px;stroke-linecap:butt;stroke-linejoin:miter;stroke-opacity:1"
       d="m 347,207.3622 0,-21"
       id="path6050"
       inkscape:connector-curvature="0" />
    <path
       style="fill:none;fill-rule:evenodd;stroke:#646464;stroke-width:1px;stroke-linecap:butt;stroke-linejoin:miter;stroke-opacity:1"
       d="m 347,166.3622 0,-10"
       id="path6052"
       inkscape:connector-curvature="0" />
    <path
       style="fill:none;fill-rule:evenodd;stroke:#000000;stroke-width:2;stroke-linecap:butt;stroke-linejoin:miter;stroke-miterlimit:4;stroke-dasharray:none;stroke-opacity:1"
       d="m 274.77401,283.25494 144.5087,0"
       id="path4827-2-1"
       inkscape:connector-curvature="0" />
    <path
       style="fill:none;fill-rule:evenodd;stroke:#000000;stroke-width:2;stroke-linecap:butt;stroke-linejoin:miter;stroke-miterlimit:4;stroke-dasharray:none;stroke-opacity:1"
       d="m 274.81424,296.18705 3.44339,0 1.19345,0 139.87186,0"
       id="path4827-9"
       inkscape:connector-curvature="0"
       sodipodi:nodetypes="cccc" />
    <path
       style="fill:none;fill-rule:evenodd;stroke:#000000;stroke-width:1px;stroke-linecap:butt;stroke-linejoin:miter;stroke-opacity:1"
       d="m 309.44893,146.19128 c 0,0 0,-10 10,-10 10,0 55,0 55,0 0,0 10,0 10,10 0,10 -10,10 -10,10 l -55,0 c 0,0 -10,0 -10,-10"
       id="path5898"
       inkscape:connector-curvature="0" />
    <path
       style="fill:none;fill-rule:evenodd;stroke:#000000;stroke-width:1px;stroke-linecap:butt;stroke-linejoin:miter;stroke-opacity:1"
       d="m 316.95673,176.85464 c 0,0 0,-10 10,-10 10,0 40,0 40,0 0,0 10,0 10,10 0,10 -10,10 -10,10 l -40,0 c 0,0 -10,0 -10,-10 z"
       id="path5920"
       inkscape:connector-curvature="0" />
    <path
       style="fill:none;fill-rule:evenodd;stroke:#000000;stroke-width:1px;stroke-linecap:butt;stroke-linejoin:miter;stroke-opacity:1"
       d="m 311.94674,217.4593 c 0,0 0,-10 10,-10 10,0 50,0 50,0 0,0 10,0 10,10 0,10 -10,10 -10,10 l -50,0 c 0,0 -10,0 -10,-10 z"
       id="path5946"
       inkscape:connector-curvature="0" />
    <path
       style="fill:none;fill-rule:evenodd;stroke:#000000;stroke-width:1.0175612px;stroke-linecap:butt;stroke-linejoin:miter;stroke-opacity:1"
       d="m 290.00878,102.72687 c 0,0 0,-10.355884 9.99847,-10.355884 9.99848,0 94.9855,0 94.9855,0 0,0 9.99847,0 9.99847,10.355884 0,10.35589 0,124.27066 0,124.27066 0,0 0,10.35589 -9.99847,10.35589 -9.99848,0 -94.9855,0 -94.9855,0 0,0 -9.99847,0 -9.99847,-10.35589 0,-10.35589 0,-124.27066 0,-124.27066 z"
       id="path5976"
       inkscape:connector-curvature="0" />
    <path
       style="fill:none;fill-rule:evenodd;stroke:#000000;stroke-width:1px;stroke-linecap:butt;stroke-linejoin:miter;stroke-opacity:1"
       d="m 300,122.3622 c 0,0 0,-10 10,-10 10,0 75,0 75,0 0,0 10,0 10,10 0,10 0,60 0,60 l 0,5 c 0,0 0,10 -10,10 -10,0 -75,0 -75,0 0,0 -10,0 -10,-10 0,-10 0,-65 0,-65 z"
       id="path6000"
       inkscape:connector-curvature="0" />
    <path
       style="fill:none;fill-rule:evenodd;stroke:#000000;stroke-width:1px;stroke-linecap:butt;stroke-linejoin:miter;stroke-opacity:1"
       d="m 311.96426,257.3622 c 0,0 0,-10 10,-10 10,0 50,0 50,0 0,0 10,0 10,10 0,10 -10,10 -10,10 l -50,0 c 0,0 -10,0 -10,-10 z"
       id="path6042"
       inkscape:connector-curvature="0" />
    <circle
       style="fill:#646464;fill-opacity:1;stroke:#646464;stroke-width:1;stroke-linejoin:round;stroke-miterlimit:4;stroke-dasharray:none;stroke-dashoffset:0;stroke-opacity:1"
       id="path6064"
       cx="360"
       cy="283.36221"
       r="1" />
    <circle
       style="fill:#646464;fill-opacity:1;stroke:#646464;stroke-width:1;stroke-linejoin:round;stroke-miterlimit:4;stroke-dasharray:none;stroke-dashoffset:0;stroke-opacity:1"
       id="path6066"
       cx="335"
       cy="296.36221"
       r="1" />
  </g>
</svg>
