<?xml version="1.0" encoding="UTF-8" standalone="no"?>
<!-- Created with Inkscape (http://www.inkscape.org/) -->

<svg
   xmlns:dc="http://purl.org/dc/elements/1.1/"
   xmlns:cc="http://creativecommons.org/ns#"
   xmlns:rdf="http://www.w3.org/1999/02/22-rdf-syntax-ns#"
   xmlns:svg="http://www.w3.org/2000/svg"
   xmlns="http://www.w3.org/2000/svg"
   xmlns:sodipodi="http://sodipodi.sourceforge.net/DTD/sodipodi-0.dtd"
   xmlns:inkscape="http://www.inkscape.org/namespaces/inkscape"
   width="210mm"
   height="297mm"
   viewBox="0 0 744.09448819 1052.3622047"
   id="svg4299"
   version="1.1"
   inkscape:version="0.91 r13725"
   sodipodi:docname="sensor_gps_veri.svg">
  <defs
     id="defs4301">
    <marker
       inkscape:isstock="true"
       style="overflow:visible;"
       id="marker5269"
       refX="0.0"
       refY="0.0"
       orient="auto"
       inkscape:stockid="Arrow1Mend">
      <path
         transform="scale(0.4) rotate(180) translate(10,0)"
         style="fill-rule:evenodd;stroke:#000000;stroke-width:1pt;stroke-opacity:1;fill:#000000;fill-opacity:1"
         d="M 0.0,0.0 L 5.0,-5.0 L -12.5,0.0 L 5.0,5.0 L 0.0,0.0 z "
         id="path5271" />
    </marker>
    <marker
       inkscape:stockid="Arrow1Mend"
       orient="auto"
       refY="0.0"
       refX="0.0"
       id="Arrow1Mend"
       style="overflow:visible;"
       inkscape:isstock="true"
       inkscape:collect="always">
      <path
         id="path4996"
         d="M 0.0,0.0 L 5.0,-5.0 L -12.5,0.0 L 5.0,5.0 L 0.0,0.0 z "
         style="fill-rule:evenodd;stroke:#000000;stroke-width:1pt;stroke-opacity:1;fill:#000000;fill-opacity:1"
         transform="scale(0.4) rotate(180) translate(10,0)" />
    </marker>
    <marker
       inkscape:stockid="Arrow1Mend"
       orient="auto"
       refY="0"
       refX="0"
       id="Arrow1Mend-7"
       style="overflow:visible"
       inkscape:isstock="true"
       inkscape:collect="always">
      <path
         inkscape:connector-curvature="0"
         id="path4996-5"
         d="M 0,0 5,-5 -12.5,0 5,5 0,0 Z"
         style="fill:#000000;fill-opacity:1;fill-rule:evenodd;stroke:#000000;stroke-width:1pt;stroke-opacity:1"
         transform="matrix(-0.4,0,0,-0.4,-4,0)" />
    </marker>
  </defs>
  <sodipodi:namedview
     id="base"
     pagecolor="#ffffff"
     bordercolor="#666666"
     borderopacity="1.0"
     inkscape:pageopacity="0.0"
     inkscape:pageshadow="2"
     inkscape:zoom="5.6"
     inkscape:cx="345.97284"
     inkscape:cy="688.93932"
     inkscape:document-units="px"
     inkscape:current-layer="layer1"
     showgrid="true"
     inkscape:window-width="2560"
     inkscape:window-height="1389"
     inkscape:window-x="0"
     inkscape:window-y="27"
     inkscape:window-maximized="1">
    <inkscape:grid
       type="xygrid"
       id="grid4847" />
  </sodipodi:namedview>
  <metadata
     id="metadata4304">
    <rdf:RDF>
      <cc:Work
         rdf:about="">
        <dc:format>image/svg+xml</dc:format>
        <dc:type
           rdf:resource="http://purl.org/dc/dcmitype/StillImage" />
        <dc:title></dc:title>
      </cc:Work>
    </rdf:RDF>
  </metadata>
  <g
     inkscape:label="Layer 1"
     inkscape:groupmode="layer"
     id="layer1">
    <text
       xml:space="preserve"
       style="font-style:normal;font-weight:normal;font-size:29.34983635px;line-height:125%;font-family:sans-serif;letter-spacing:0px;word-spacing:0px;fill:#000000;fill-opacity:1;stroke:none;stroke-width:1px;stroke-linecap:butt;stroke-linejoin:miter;stroke-opacity:1"
       x="285.66324"
       y="365.5148"
       id="text4740-7-4-7-0-6"
       sodipodi:linespacing="125%"><tspan
         sodipodi:role="line"
         id="tspan4742-8-7-8-6-2"
         x="285.66324"
         y="365.5148"
         style="font-size:11.00618839px;text-align:center;text-anchor:middle">GPS</tspan><tspan
         sodipodi:role="line"
         x="285.66324"
         y="379.27252"
         style="font-size:11.00618839px;text-align:center;text-anchor:middle"
         id="tspan5360">Data</tspan></text>
    <path
       style="fill:none;fill-rule:evenodd;stroke:#000000;stroke-width:1px;stroke-linecap:butt;stroke-linejoin:miter;stroke-opacity:1"
       d="m 267.56339,360.29113 c 0,0 0,-10 10,-10 10,0 10,0 10,0 l 5,0 c 0,0 10,0 10,10 0,10 0,15 0,15 0,0 0,10 -10,10 -10,0 -15,0 -15,0 0,0 -10,0 -10,-10 0,-10 0,-10 0,-10 z"
       id="path5362"
       inkscape:connector-curvature="0" />
    <text
       xml:space="preserve"
       style="font-style:normal;font-weight:normal;font-size:29.34983635px;line-height:125%;font-family:sans-serif;letter-spacing:0px;word-spacing:0px;fill:#000000;fill-opacity:1;stroke:none;stroke-width:1px;stroke-linecap:butt;stroke-linejoin:miter;stroke-opacity:1"
       x="365.66324"
       y="371.94327"
       id="text4740-7-4-7-0-6-5"
       sodipodi:linespacing="125%"><tspan
         sodipodi:role="line"
         x="365.66324"
         y="371.94327"
         style="font-size:11.00618839px;text-align:center;text-anchor:middle"
         id="tspan5360-2">GPS Node</tspan></text>
    <path
       style="fill:none;fill-rule:evenodd;stroke:#000000;stroke-width:1px;stroke-linecap:butt;stroke-linejoin:miter;stroke-opacity:1"
       d="m 332.56339,365.29113 c 0,0 0,-10 10,-10 10,0 45,0 45,0 0,0 10,0 10,10 0,10 0,5 0,5 0,0 0,10 -10,10 -10,0 -45,0 -45,0 0,0 -10,0 -10,-10 0,-10 0,-5 0,-5 z"
       id="path5406"
       inkscape:connector-curvature="0" />
    <path
       style="fill:none;fill-rule:evenodd;stroke:#000000;stroke-width:1px;stroke-linecap:butt;stroke-linejoin:miter;stroke-opacity:1;marker-end:url(#marker5269)"
       d="m 402.56339,367.79621 20,0"
       id="path10991"
       inkscape:connector-curvature="0" />
    <text
       xml:space="preserve"
       style="font-style:normal;font-weight:normal;font-size:29.34983635px;line-height:125%;font-family:sans-serif;letter-spacing:0px;word-spacing:0px;fill:#000000;fill-opacity:1;stroke:none;stroke-width:1px;stroke-linecap:butt;stroke-linejoin:miter;stroke-opacity:1"
       x="458.40335"
       y="371.375"
       id="text4740-7-4-7-0-6-5-9"
       sodipodi:linespacing="125%"><tspan
         sodipodi:role="line"
         x="458.40335"
         y="371.375"
         style="font-size:11.00618839px;text-align:center;text-anchor:middle"
         id="tspan5360-2-1">std::cout</tspan></text>
    <path
       style="fill:none;fill-rule:evenodd;stroke:#000000;stroke-width:1px;stroke-linecap:butt;stroke-linejoin:miter;stroke-opacity:1;marker-end:url(#Arrow1Mend)"
       d="m 307.56339,367.79621 20,0"
       id="path10991-9"
       inkscape:connector-curvature="0" />
    <text
       xml:space="preserve"
       style="font-style:normal;font-weight:normal;font-size:29.34983635px;line-height:125%;font-family:sans-serif;letter-spacing:0px;word-spacing:0px;fill:#000000;fill-opacity:1;stroke:none;stroke-width:1px;stroke-linecap:butt;stroke-linejoin:miter;stroke-opacity:1"
       x="285.23441"
       y="316.76471"
       id="text4740-7-4-7-0-6-97"
       sodipodi:linespacing="125%"><tspan
         sodipodi:role="line"
         x="285.23441"
         y="316.76471"
         style="font-size:11.00618839px;text-align:center;text-anchor:middle"
         id="tspan5360-6">Zybo</tspan></text>
    <text
       xml:space="preserve"
       style="font-style:normal;font-weight:normal;font-size:29.34983635px;line-height:125%;font-family:sans-serif;letter-spacing:0px;word-spacing:0px;fill:#000000;fill-opacity:1;stroke:none;stroke-width:1px;stroke-linecap:butt;stroke-linejoin:miter;stroke-opacity:1"
       x="365.30612"
       y="316.97876"
       id="text4740-7-4-7-0-6-5-3"
       sodipodi:linespacing="125%"><tspan
         sodipodi:role="line"
         x="365.30612"
         y="316.97876"
         style="font-size:11.00618839px;text-align:center;text-anchor:middle"
         id="tspan5360-2-6">std::cin</tspan></text>
    <path
       style="fill:none;fill-rule:evenodd;stroke:#000000;stroke-width:1px;stroke-linecap:butt;stroke-linejoin:miter;stroke-opacity:1;marker-end:url(#Arrow1Mend-7)"
       d="m 365.06341,329.76048 0,20"
       id="path10991-9-3"
       inkscape:connector-curvature="0" />
    <path
       style="fill:none;fill-rule:evenodd;stroke:#000000;stroke-width:1px;stroke-linecap:butt;stroke-linejoin:miter;stroke-opacity:1"
       d="m 340,311.29078 c 0,0 0,-10 10,-10 10,0 30,0 30,0 0,0 10,0 10,10 0,10 0,5 0,5 0,0 0,10 -10,10 -10,0 -30,0 -30,0 0,0 -10,0 -10,-10 0,-10 0,-5 0,-5 z"
       id="path5552"
       inkscape:connector-curvature="0" />
    <path
       style="fill:none;fill-rule:evenodd;stroke:#000000;stroke-width:1px;stroke-linecap:butt;stroke-linejoin:miter;stroke-opacity:1"
       d="m 430,365.30915 c 0,0 0,-10 10,-10 10,0 35,0 35,0 0,0 10,0 10,10 0,10 0,5 0,5 0,0 0,10 -10,10 -10,0 -35,0 -35,0 0,0 -10,0 -10,-10 0,-10 0,-5 0,-5 z"
       id="path5571"
       inkscape:connector-curvature="0" />
  </g>
</svg>
