<?xml version="1.0" encoding="UTF-8" standalone="no"?>
<!-- Created with Inkscape (http://www.inkscape.org/) -->

<svg
   xmlns:dc="http://purl.org/dc/elements/1.1/"
   xmlns:cc="http://creativecommons.org/ns#"
   xmlns:rdf="http://www.w3.org/1999/02/22-rdf-syntax-ns#"
   xmlns:svg="http://www.w3.org/2000/svg"
   xmlns="http://www.w3.org/2000/svg"
   xmlns:sodipodi="http://sodipodi.sourceforge.net/DTD/sodipodi-0.dtd"
   xmlns:inkscape="http://www.inkscape.org/namespaces/inkscape"
   width="210mm"
   height="297mm"
   viewBox="0 0 744.09448819 1052.3622047"
   id="svg10019"
   version="1.1"
   inkscape:version="0.91 r13725"
   sodipodi:docname="stationary_software.svg">
  <defs
     id="defs10021" />
  <sodipodi:namedview
     id="base"
     pagecolor="#ffffff"
     bordercolor="#666666"
     borderopacity="1.0"
     inkscape:pageopacity="0.0"
     inkscape:pageshadow="2"
     inkscape:zoom="1.4"
     inkscape:cx="250.70418"
     inkscape:cy="578.82998"
     inkscape:document-units="px"
     inkscape:current-layer="layer1"
     showgrid="false"
     inkscape:window-width="1366"
     inkscape:window-height="727"
     inkscape:window-x="0"
     inkscape:window-y="17"
     inkscape:window-maximized="1" />
  <metadata
     id="metadata10024">
    <rdf:RDF>
      <cc:Work
         rdf:about="">
        <dc:format>image/svg+xml</dc:format>
        <dc:type
           rdf:resource="http://purl.org/dc/dcmitype/StillImage" />
        <dc:title></dc:title>
      </cc:Work>
    </rdf:RDF>
  </metadata>
  <g
     inkscape:label="Layer 1"
     inkscape:groupmode="layer"
     id="layer1">
    <text
       xml:space="preserve"
       style="font-style:normal;font-weight:normal;font-size:29.34983635px;line-height:125%;font-family:sans-serif;letter-spacing:0px;word-spacing:0px;fill:#000000;fill-opacity:1;stroke:none;stroke-width:1px;stroke-linecap:butt;stroke-linejoin:miter;stroke-opacity:1"
       x="304.24432"
       y="481.41492"
       id="text4740-7-4-7-48-1-8"
       sodipodi:linespacing="125%"><tspan
         sodipodi:role="line"
         x="304.24432"
         y="481.41492"
         style="font-size:11.00618839px"
         id="tspan9725">Protocol</tspan></text>
    <text
       xml:space="preserve"
       style="font-style:normal;font-weight:normal;font-size:29.34983635px;line-height:125%;font-family:sans-serif;letter-spacing:0px;word-spacing:0px;fill:#000000;fill-opacity:1;stroke:none;stroke-width:1px;stroke-linecap:butt;stroke-linejoin:miter;stroke-opacity:1"
       x="295.99432"
       y="511.91492"
       id="text4740-7-4-7-48-1-8-1"
       sodipodi:linespacing="125%"><tspan
         sodipodi:role="line"
         id="tspan4742-8-7-8-7-7-9-0"
         x="295.99432"
         y="511.91492"
         style="font-size:11.00618839px">Application</tspan></text>
    <text
       xml:space="preserve"
       style="font-style:normal;font-weight:normal;font-size:29.34983635px;line-height:125%;font-family:sans-serif;letter-spacing:0px;word-spacing:0px;fill:#000000;fill-opacity:1;stroke:none;stroke-width:1px;stroke-linecap:butt;stroke-linejoin:miter;stroke-opacity:1"
       x="401.16455"
       y="512.02155"
       id="text4740-7-4-7-48-1-8-6"
       sodipodi:linespacing="125%"><tspan
         sodipodi:role="line"
         id="tspan4742-8-7-8-7-7-9-1"
         x="401.16455"
         y="512.02155"
         style="font-size:11.00618839px">UI</tspan></text>
    <text
       xml:space="preserve"
       style="font-style:normal;font-weight:normal;font-size:29.34983635px;line-height:125%;font-family:sans-serif;letter-spacing:0px;word-spacing:0px;fill:#000000;fill-opacity:1;stroke:none;stroke-width:1px;stroke-linecap:butt;stroke-linejoin:miter;stroke-opacity:1"
       x="275.62195"
       y="405.78973"
       id="text4740-7-8-3-8-7"
       sodipodi:linespacing="125%"><tspan
         sodipodi:role="line"
         id="tspan4742-8-4-1-5-6"
         x="275.62195"
         y="405.78973"
         style="font-size:11.00618839px">K</tspan></text>
    <text
       xml:space="preserve"
       style="font-style:normal;font-weight:normal;font-size:29.34983635px;line-height:125%;font-family:sans-serif;letter-spacing:0px;word-spacing:0px;fill:#000000;fill-opacity:1;stroke:none;stroke-width:1px;stroke-linecap:butt;stroke-linejoin:miter;stroke-opacity:1"
       x="309.61823"
       y="411.55768"
       id="text4740-7-8-3-8-7-5"
       sodipodi:linespacing="125%"><tspan
         sodipodi:role="line"
         id="tspan4742-8-4-1-5-6-6"
         x="309.61823"
         y="411.55768"
         style="font-size:11.00618839px">TCP/IP</tspan></text>
    <text
       xml:space="preserve"
       style="font-style:normal;font-weight:normal;font-size:29.34983635px;line-height:125%;font-family:sans-serif;letter-spacing:0px;word-spacing:0px;fill:#000000;fill-opacity:1;stroke:none;stroke-width:1px;stroke-linecap:butt;stroke-linejoin:miter;stroke-opacity:1"
       x="305.67645"
       y="442.80359"
       id="text4740-7-4-7-48-1-8-9"
       sodipodi:linespacing="125%"><tspan
         sodipodi:role="line"
         id="tspan4742-8-7-8-7-7-9-3"
         x="305.67645"
         y="442.80359"
         style="font-size:11.00618839px">Session</tspan></text>
    <path
       style="fill:none;fill-rule:evenodd;stroke:#646464;stroke-width:1px;stroke-linecap:butt;stroke-linejoin:miter;stroke-opacity:1"
       d="m 326.42857,417.85457 0,10"
       id="path9750"
       inkscape:connector-curvature="0" />
    <path
       style="fill:none;fill-rule:evenodd;stroke:#646464;stroke-width:1px;stroke-linecap:butt;stroke-linejoin:miter;stroke-opacity:1"
       d="m 326.42857,447.85457 0,20"
       id="path9752"
       inkscape:connector-curvature="0" />
    <path
       style="fill:none;fill-rule:evenodd;stroke:#646464;stroke-width:1px;stroke-linecap:butt;stroke-linejoin:miter;stroke-opacity:1"
       d="m 326.42857,487.32423 0,10"
       id="path9754"
       inkscape:connector-curvature="0" />
    <path
       style="fill:none;fill-rule:evenodd;stroke:#646464;stroke-width:1px;stroke-linecap:butt;stroke-linejoin:miter;stroke-opacity:1"
       d="m 366.42857,507.32423 20,0"
       id="path9756"
       inkscape:connector-curvature="0" />
    <text
       xml:space="preserve"
       style="font-style:normal;font-weight:normal;font-size:29.34983635px;line-height:125%;font-family:sans-serif;letter-spacing:0px;word-spacing:0px;fill:#000000;fill-opacity:1;stroke:none;stroke-width:1px;stroke-linecap:butt;stroke-linejoin:miter;stroke-opacity:1"
       x="274.87195"
       y="475.25946"
       id="text4740-7-8-3-8-7-52"
       sodipodi:linespacing="125%"><tspan
         sodipodi:role="line"
         id="tspan4742-8-4-1-5-6-5"
         x="274.87195"
         y="475.25946"
         style="font-size:11.00618839px">US</tspan></text>
    <path
       style="fill:none;fill-rule:evenodd;stroke:#000000;stroke-width:2.17469501;stroke-linecap:butt;stroke-linejoin:round;stroke-miterlimit:4;stroke-dasharray:none;stroke-opacity:1"
       d="m 366.71756,366.54414 0,-17.65838 29.13616,0 0,17.65838 z"
       id="path9776"
       inkscape:connector-curvature="0" />
    <path
       style="fill:none;fill-rule:evenodd;stroke:#000000;stroke-width:2.17469501;stroke-linecap:round;stroke-linejoin:miter;stroke-miterlimit:4;stroke-dasharray:none;stroke-opacity:1"
       d="m 374.03665,370.51719 14.49797,0"
       id="path9778"
       inkscape:connector-curvature="0" />
    <path
       style="fill:none;fill-rule:evenodd;stroke:#646464;stroke-width:1px;stroke-linecap:butt;stroke-linejoin:miter;stroke-opacity:1"
       d="m 406.42857,496.85457 0,-120"
       id="path9804"
       inkscape:connector-curvature="0" />
    <path
       style="fill:none;fill-rule:evenodd;stroke:#000000;stroke-width:1;stroke-linecap:butt;stroke-linejoin:miter;stroke-miterlimit:4;stroke-dasharray:1, 1;stroke-dashoffset:0;stroke-opacity:1"
       d="m 428.12527,457.75102 -152.42321,0"
       id="path29492-4"
       inkscape:connector-curvature="0" />
    <path
       style="fill:none;fill-rule:evenodd;stroke:#000000;stroke-width:1px;stroke-linecap:butt;stroke-linejoin:miter;stroke-opacity:1"
       d="m 306.46821,448.32423 c 0,0 -10,0 -10,-10 0,-10 10,-10 10,-10 l 40,0 c 0,0 10,0 10,10 0,10 -10,10 -10,10 z"
       id="path9688-7"
       inkscape:connector-curvature="0" />
    <path
       style="fill:none;fill-rule:evenodd;stroke:#000000;stroke-width:1px;stroke-linecap:butt;stroke-linejoin:miter;stroke-opacity:1"
       d="m 306.46821,487.41889 c 0,0 -10,0 -10,-10 0,-10 10,-10 10,-10 l 40,0 c 0,0 10,0 10,10 0,10 -10,10 -10,10 z"
       id="path9688-7-4"
       inkscape:connector-curvature="0" />
    <path
       style="fill:none;fill-rule:evenodd;stroke:#000000;stroke-width:1px;stroke-linecap:butt;stroke-linejoin:miter;stroke-opacity:1"
       d="m 286.42857,507.19923 c 0,0 0,-10 10,-10 10,0 60,0 60,0 0,0 10,0 10,10 0,10 -10,10 -10,10 l -60,0 c 0,0 -10,0 -10,-10 z"
       id="path9744"
       inkscape:connector-curvature="0" />
    <path
       style="fill:none;fill-rule:evenodd;stroke:#000000;stroke-width:1px;stroke-linecap:butt;stroke-linejoin:miter;stroke-opacity:1"
       d="m 386.42857,507.22957 c 0,0 0,-10 10,-10 10,0 20,0 20,0 0,0 10,0 10,10 0,10 -10,10 -10,10 l -20,0 c 0,0 -10,0 -10,-10 z"
       id="path9746"
       inkscape:connector-curvature="0" />
    <g
       transform="matrix(-0.59796311,0,0,0.59796311,632.97129,343.74916)"
       id="g8665-9-8"
       inkscape:transform-center-x="-0.7818594"
       inkscape:transform-center-y="-1.4142136">
      <path
         style="fill:none;fill-opacity:1;stroke:#000000;stroke-width:1;stroke-linejoin:round;stroke-miterlimit:4;stroke-dasharray:none;stroke-dashoffset:0;stroke-opacity:1"
         id="path4994-9-8-15-6-8"
         sodipodi:type="arc"
         sodipodi:cx="547.42383"
         sodipodi:cy="38.522106"
         sodipodi:rx="10"
         sodipodi:ry="10"
         sodipodi:start="5.2359878"
         sodipodi:end="1.0471976"
         d="m 552.42383,29.861852 a 10,10 0 0 1 5,8.660255 10,10 0 0 1 -5,8.660253"
         sodipodi:open="true" />
      <path
         style="fill:none;fill-opacity:1;stroke:#000000;stroke-width:1;stroke-linejoin:round;stroke-miterlimit:4;stroke-dasharray:none;stroke-dashoffset:0;stroke-opacity:1"
         id="path4996-3-7-9-1-4"
         sodipodi:type="arc"
         sodipodi:cx="547.42383"
         sodipodi:cy="38.522106"
         sodipodi:rx="15"
         sodipodi:ry="15"
         sodipodi:start="5.2359878"
         sodipodi:end="1.0471976"
         sodipodi:open="true"
         d="m 554.92383,25.531725 a 15,15 0 0 1 7.5,12.990382 15,15 0 0 1 -7.5,12.990381" />
      <path
         style="fill:none;fill-opacity:1;stroke:#000000;stroke-width:1;stroke-linejoin:round;stroke-miterlimit:4;stroke-dasharray:none;stroke-dashoffset:0;stroke-opacity:1"
         id="path4998-6-9-7-0-3"
         sodipodi:type="arc"
         sodipodi:cx="547.42383"
         sodipodi:cy="38.522106"
         sodipodi:rx="20"
         sodipodi:ry="20"
         sodipodi:start="5.2359878"
         sodipodi:end="1.0471976"
         sodipodi:open="true"
         d="m 557.42383,21.201599 a 20,20 0 0 1 10,17.320508 20,20 0 0 1 -10,17.320508" />
    </g>
    <text
       xml:space="preserve"
       style="font-style:normal;font-weight:normal;font-size:29.34983635px;line-height:125%;font-family:sans-serif;letter-spacing:0px;word-spacing:0px;fill:#000000;fill-opacity:1;stroke:none;stroke-width:1px;stroke-linecap:butt;stroke-linejoin:miter;stroke-opacity:1"
       x="314.49396"
       y="371.32043"
       id="text4740-7-4-7-0-5-8-4"
       sodipodi:linespacing="125%"><tspan
         sodipodi:role="line"
         id="tspan4742-8-7-8-6-9-3-3"
         x="314.49396"
         y="371.32043"
         style="font-size:11.00618839px">WIFI</tspan><tspan
         sodipodi:role="line"
         x="314.49396"
         y="385.07819"
         style="font-size:11.00618839px"
         id="tspan9178-0" /></text>
    <path
       style="fill:none;fill-rule:evenodd;stroke:#646464;stroke-width:1px;stroke-linecap:butt;stroke-linejoin:miter;stroke-opacity:1"
       d="m 326.42857,397.85457 0,-21"
       id="path9897"
       inkscape:connector-curvature="0" />
    <path
       style="fill:none;fill-rule:evenodd;stroke:#000000;stroke-width:1px;stroke-linecap:butt;stroke-linejoin:miter;stroke-opacity:1"
       d="m 306.35211,417.85457 c 0,0 -10,0 -10,-10 0,-10 10,-10 10,-10 l 40,0 c 0,0 10,0 10,10 0,10 -10,10 -10,10 z"
       id="path9688"
       inkscape:connector-curvature="0" />
    <path
       style="fill:none;fill-rule:evenodd;stroke:#000000;stroke-width:1px;stroke-linecap:butt;stroke-linejoin:miter;stroke-opacity:1"
       d="m 306.36789,366.88127 c 0,0 0,-10 10,-10 10,0 20,0 20,0 0,0 10,0 10,10 0,10 -10,10 -10,10 l -20,0 c 0,0 -10,0 -10,-10 z"
       id="path9746-1"
       inkscape:connector-curvature="0" />
    <path
       style="fill:#ffffff;fill-opacity:1;fill-rule:evenodd;stroke:#000000;stroke-width:1px;stroke-linecap:butt;stroke-linejoin:miter;stroke-opacity:1"
       d="m 386.42857,366.97957 c 0,0 0,-10 10,-10 10,0 20,0 20,0 0,0 10,0 10,10 0,10 -10,10 -10,10 l -20,0 c 0,0 -10,0 -10,-10 z"
       id="path9901"
       inkscape:connector-curvature="0" />
    <text
       xml:space="preserve"
       style="font-style:normal;font-weight:normal;font-size:29.34983635px;line-height:125%;font-family:sans-serif;letter-spacing:0px;word-spacing:0px;fill:#000000;fill-opacity:1;stroke:none;stroke-width:1px;stroke-linecap:butt;stroke-linejoin:miter;stroke-opacity:1"
       x="393.47174"
       y="371.12946"
       id="text4740-7-8-3-8-7-5-4"
       sodipodi:linespacing="125%"><tspan
         sodipodi:role="line"
         x="393.47174"
         y="371.12946"
         style="font-size:11.00618839px"
         id="tspan9798">User</tspan></text>
    <path
       style="fill:none;fill-rule:evenodd;stroke:#000000;stroke-width:1px;stroke-linecap:butt;stroke-linejoin:miter;stroke-opacity:1"
       d="m 266.42857,397.85457 c 0,0 0,-10 10,-10 10,0 150,0 150,0 0,0 10,0 10,10 0,10 0,120 0,120 0,0 0,10 -10,10 -10,0 -150,0 -150,0 0,0 -10,0 -10,-10 0,-10 0,-120 0,-120 z"
       id="path9748"
       inkscape:connector-curvature="0" />
  </g>
</svg>
