<?xml version="1.0" encoding="UTF-8" standalone="no"?>
<!-- Created with Inkscape (http://www.inkscape.org/) -->

<svg
   xmlns:dc="http://purl.org/dc/elements/1.1/"
   xmlns:cc="http://creativecommons.org/ns#"
   xmlns:rdf="http://www.w3.org/1999/02/22-rdf-syntax-ns#"
   xmlns:svg="http://www.w3.org/2000/svg"
   xmlns="http://www.w3.org/2000/svg"
   xmlns:sodipodi="http://sodipodi.sourceforge.net/DTD/sodipodi-0.dtd"
   xmlns:inkscape="http://www.inkscape.org/namespaces/inkscape"
   width="210mm"
   height="297mm"
   viewBox="0 0 744.09448819 1052.3622047"
   id="svg5636"
   version="1.1"
   inkscape:version="0.91 r13725"
   sodipodi:docname="use_cases.svg">
  <defs
     id="defs5638">
    <marker
       inkscape:isstock="true"
       style="overflow:visible;"
       id="marker8742"
       refX="0.0"
       refY="0.0"
       orient="auto"
       inkscape:stockid="Arrow1Mend">
      <path
         transform="scale(0.4) rotate(180) translate(10,0)"
         style="fill-rule:evenodd;stroke:#000000;stroke-width:1pt;stroke-opacity:1;fill:#000000;fill-opacity:1"
         d="M 0.0,0.0 L 5.0,-5.0 L -12.5,0.0 L 5.0,5.0 L 0.0,0.0 z "
         id="path8744" />
    </marker>
    <marker
       inkscape:stockid="Arrow1Mend"
       orient="auto"
       refY="0.0"
       refX="0.0"
       id="marker8702"
       style="overflow:visible;"
       inkscape:isstock="true"
       inkscape:collect="always">
      <path
         id="path8704"
         d="M 0.0,0.0 L 5.0,-5.0 L -12.5,0.0 L 5.0,5.0 L 0.0,0.0 z "
         style="fill-rule:evenodd;stroke:#000000;stroke-width:1pt;stroke-opacity:1;fill:#000000;fill-opacity:1"
         transform="scale(0.4) rotate(180) translate(10,0)" />
    </marker>
    <marker
       inkscape:isstock="true"
       style="overflow:visible;"
       id="marker8668"
       refX="0.0"
       refY="0.0"
       orient="auto"
       inkscape:stockid="Arrow1Mend"
       inkscape:collect="always">
      <path
         transform="scale(0.4) rotate(180) translate(10,0)"
         style="fill-rule:evenodd;stroke:#000000;stroke-width:1pt;stroke-opacity:1;fill:#000000;fill-opacity:1"
         d="M 0.0,0.0 L 5.0,-5.0 L -12.5,0.0 L 5.0,5.0 L 0.0,0.0 z "
         id="path8670" />
    </marker>
    <marker
       inkscape:stockid="Arrow1Mend"
       orient="auto"
       refY="0.0"
       refX="0.0"
       id="Arrow1Mend"
       style="overflow:visible;"
       inkscape:isstock="true"
       inkscape:collect="always">
      <path
         id="path8395"
         d="M 0.0,0.0 L 5.0,-5.0 L -12.5,0.0 L 5.0,5.0 L 0.0,0.0 z "
         style="fill-rule:evenodd;stroke:#000000;stroke-width:1pt;stroke-opacity:1;fill:#000000;fill-opacity:1"
         transform="scale(0.4) rotate(180) translate(10,0)" />
    </marker>
  </defs>
  <sodipodi:namedview
     id="base"
     pagecolor="#ffffff"
     bordercolor="#666666"
     borderopacity="1.0"
     inkscape:pageopacity="0.0"
     inkscape:pageshadow="2"
     inkscape:zoom="1.979899"
     inkscape:cx="492.97093"
     inkscape:cy="834.67892"
     inkscape:document-units="px"
     inkscape:current-layer="layer1"
     showgrid="true"
     inkscape:window-width="1366"
     inkscape:window-height="727"
     inkscape:window-x="0"
     inkscape:window-y="17"
     inkscape:window-maximized="1">
    <inkscape:grid
       type="xygrid"
       id="grid6184" />
  </sodipodi:namedview>
  <metadata
     id="metadata5641">
    <rdf:RDF>
      <cc:Work
         rdf:about="">
        <dc:format>image/svg+xml</dc:format>
        <dc:type
           rdf:resource="http://purl.org/dc/dcmitype/StillImage" />
        <dc:title></dc:title>
      </cc:Work>
    </rdf:RDF>
  </metadata>
  <g
     inkscape:label="Layer 1"
     inkscape:groupmode="layer"
     id="layer1">
    <text
       xml:space="preserve"
       style="font-style:normal;font-weight:normal;font-size:29.34983635px;line-height:125%;font-family:sans-serif;letter-spacing:0px;word-spacing:0px;fill:#000000;fill-opacity:1;stroke:none;stroke-width:1px;stroke-linecap:butt;stroke-linejoin:miter;stroke-opacity:1"
       x="497.15942"
       y="116.4456"
       id="text4740-7-5"
       sodipodi:linespacing="125%"><tspan
         sodipodi:role="line"
         x="497.15942"
         y="116.4456"
         style="font-size:11.00618839px;text-align:center;text-anchor:middle"
         id="tspan7201">Monitor live data</tspan></text>
    <path
       style="fill:none;fill-rule:evenodd;stroke:#000000;stroke-width:1px;stroke-linecap:butt;stroke-linejoin:miter;stroke-opacity:1"
       d="m 445,104.86226 c 0,0 0,-10.000045 10,-10.000045 10,0 85,0 85,0 0,0 10,0 10,10.000045 0,10 0,15 0,15 0,0 0,10 -10,10 -10,0 -85,0 -85,0 0,0 -10,0 -10,-10 0,-10 0,-10 0,-10 z"
       id="path7205"
       inkscape:connector-curvature="0" />
    <text
       xml:space="preserve"
       style="font-style:normal;font-weight:normal;font-size:29.34983635px;line-height:125%;font-family:sans-serif;letter-spacing:0px;word-spacing:0px;fill:#000000;fill-opacity:1;stroke:none;stroke-width:1px;stroke-linecap:butt;stroke-linejoin:miter;stroke-opacity:1"
       x="497.15942"
       y="161.11925"
       id="text4740-7-5-6"
       sodipodi:linespacing="125%"><tspan
         sodipodi:role="line"
         x="497.15942"
         y="161.11925"
         style="font-size:11.00618839px;text-align:center;text-anchor:middle"
         id="tspan7201-9">Log data</tspan></text>
    <path
       style="fill:none;fill-rule:evenodd;stroke:#000000;stroke-width:1px;stroke-linecap:butt;stroke-linejoin:miter;stroke-opacity:1"
       d="m 445,150.52574 c 0,0 0,-10 10,-10 10,0 85,0 85,0 0,0 10,0 10,10 0,10 0,15 0,15 0,0 0,10 -10,10 -10,0 -85,0 -85,0 0,0 -10,0 -10,-10 0,-10 0,-10 0,-10 z"
       id="path7205-1"
       inkscape:connector-curvature="0" />
    <text
       xml:space="preserve"
       style="font-style:normal;font-weight:normal;font-size:29.34983635px;line-height:125%;font-family:sans-serif;letter-spacing:0px;word-spacing:0px;fill:#000000;fill-opacity:1;stroke:none;stroke-width:1px;stroke-linecap:butt;stroke-linejoin:miter;stroke-opacity:1"
       x="496.66449"
       y="220.4558"
       id="text4740-7-5-2"
       sodipodi:linespacing="125%"><tspan
         sodipodi:role="line"
         x="496.66449"
         y="220.4558"
         style="font-size:11.00618839px;text-align:center;text-anchor:middle"
         id="tspan7201-0">Read logged data</tspan></text>
    <path
       style="fill:none;fill-rule:evenodd;stroke:#000000;stroke-width:1px;stroke-linecap:butt;stroke-linejoin:miter;stroke-opacity:1"
       d="m 444.50508,209.86214 c 0,0 0,-10 10,-10 10,0 85,0 85,0 0,0 10,0 10,10 0,10 0,15 0,15 0,0 0,10 -10,10 -10,0 -85,0 -85,0 0,0 -10,0 -10,-10 0,-10 0,-10 0,-10 z"
       id="path7205-9"
       inkscape:connector-curvature="0" />
    <text
       xml:space="preserve"
       style="font-style:normal;font-weight:normal;font-size:29.34983635px;line-height:125%;font-family:sans-serif;letter-spacing:0px;word-spacing:0px;fill:#000000;fill-opacity:1;stroke:none;stroke-width:1px;stroke-linecap:butt;stroke-linejoin:miter;stroke-opacity:1"
       x="496.95755"
       y="259.6037"
       id="text4740-7-5-3"
       sodipodi:linespacing="125%"><tspan
         sodipodi:role="line"
         x="498.7095"
         y="259.6037"
         style="font-size:11.00618839px;text-align:center;text-anchor:middle"
         id="tspan7201-06">Toggle data </tspan><tspan
         sodipodi:role="line"
         x="496.95755"
         y="273.36142"
         style="font-size:11.00618839px;text-align:center;text-anchor:middle"
         id="tspan7263">collection</tspan></text>
    <path
       style="fill:none;fill-rule:evenodd;stroke:#000000;stroke-width:1px;stroke-linecap:butt;stroke-linejoin:miter;stroke-opacity:1"
       d="m 444.79826,254.75754 c 0,0 0,-10 10,-10 10,0 85,0 85,0 0,0 10,0 10,10 0,10 0,15 0,15 0,0 0,10 -10,10 -10,0 -85,0 -85,0 0,0 -10,0 -10,-10 0,-10 0,-10 0,-10 z"
       id="path7205-2"
       inkscape:connector-curvature="0" />
    <path
       style="fill:none;fill-rule:evenodd;stroke:#000000;stroke-width:3.05780005;stroke-linecap:round;stroke-linejoin:miter;stroke-miterlimit:4;stroke-dasharray:none;stroke-opacity:1"
       d="m 333.18014,209.85663 7.6445,-22.9335"
       id="path8334"
       inkscape:connector-curvature="0" />
    <path
       style="fill:none;fill-rule:evenodd;stroke:#000000;stroke-width:3.05780005;stroke-linecap:round;stroke-linejoin:miter;stroke-miterlimit:4;stroke-dasharray:none;stroke-opacity:1"
       d="m 348.46914,209.85663 -7.6445,-22.9335 0,-15.289"
       id="path8336"
       inkscape:connector-curvature="0" />
    <path
       style="fill:none;fill-rule:evenodd;stroke:#000000;stroke-width:3.05780005;stroke-linecap:round;stroke-linejoin:miter;stroke-miterlimit:4;stroke-dasharray:none;stroke-opacity:1"
       d="m 325.53564,184.88229 15.289,-7.6445 15.289,7.6445"
       id="path8338"
       inkscape:connector-curvature="0" />
    <circle
       style="fill:#000000;fill-opacity:1;stroke:#000000;stroke-width:4.58669996;stroke-linecap:round;stroke-linejoin:round;stroke-miterlimit:4;stroke-dasharray:18.34680028, 18.34680028;stroke-dashoffset:0;stroke-opacity:1"
       id="path8340"
       cx="340.82465"
       cy="168.57629"
       r="3.0578001" />
    <path
       style="fill:none;fill-rule:evenodd;stroke:#000000;stroke-width:1px;stroke-linecap:butt;stroke-linejoin:miter;stroke-opacity:1;marker-end:url(#marker8702)"
       d="m 365,182.3622 25,0 c 0,0 10,0 10,-10 0,-10 0,-5 0,-5 0,0 0,-10 10,-10 10,0 30,0 30,0"
       id="path8374"
       inkscape:connector-curvature="0" />
    <path
       style="fill:none;fill-rule:evenodd;stroke:#000000;stroke-width:1px;stroke-linecap:butt;stroke-linejoin:miter;stroke-opacity:1;marker-end:url(#marker8742)"
       d="m 365,177.3622 20,0 c 0,0 10,0 10,-10 0,-10 0,-45 0,-45 0,0 0,-10 10,-10 10,0 35,0 35,0"
       id="path8376"
       inkscape:connector-curvature="0" />
    <path
       style="fill:none;fill-rule:evenodd;stroke:#000000;stroke-width:1px;stroke-linecap:butt;stroke-linejoin:miter;stroke-opacity:1;marker-end:url(#Arrow1Mend)"
       d="m 365,192.3622 25,0 c 0,0 10,0 10,10 0,10 0,5 0,5 0,0 0,10 10,10 10,0 30,0 30,0"
       id="path8378"
       inkscape:connector-curvature="0" />
    <path
       style="fill:none;fill-rule:evenodd;stroke:#000000;stroke-width:1px;stroke-linecap:butt;stroke-linejoin:miter;stroke-opacity:1;marker-end:url(#marker8668)"
       d="m 365,197.3622 20,0 c 0,0 10,0 10,10 0,10 0,45 0,45 0,0 0,10 10,10 10,0 35,0 35,0"
       id="path8380"
       inkscape:connector-curvature="0" />
  </g>
</svg>
